# xmcd
#
# Track frame offsets:
#  150
#  20063
#  35768
#  52706
#  70968
#  84114
#  102389
#  120434
#  140335
#  157997
#  170290
#
# Disc length: 2526 seconds
#
# Revision: 0
# Processed by: cddbd v1.4PL0 Copyright (c) Steve Scherf et al.
# Submitted via: AltoMP3_Maker 3.0
#
DISCID=8309dc0b
DTITLE=Sha-Ila - O-Pet
DYEAR=1900
DGENRE=
TTITLE0=Baloni
TTITLE1=Opusti Se
TTITLE2=Daj
TTITLE3=Bebo
TTITLE4=Pitam Se
TTITLE5=I Kada Si Sam
TTITLE6=Pare I Moæ
TTITLE7=Uvek Biæu Tu
TTITLE8=Hteo Bi
TTITLE9=Pitam Se (HC Mix)
TTITLE10=Mi Se J.
EXTD=
EXTT0=
EXTT1=
EXTT2=
EXTT3=
EXTT4=
EXTT5=
EXTT6=
EXTT7=
EXTT8=
EXTT9=
EXTT10=
PLAYORDER=
